# xmcd CD database file
#
# Track frame offsets:
#	150
#	15690
#	40557
#	60877
#	93565
#	117313
#	140056
#	166912
#	193305
#	218615
#
# Disc length: 3199 seconds
#
# Revision: 1
# Processed by: cddbd v1.5.2PL0 Copyright (c) Steve Scherf et al.
# Submitted via: CDex 1.70beta3
#
DISCID=840c7d0a
DTITLE=indigo jam unit - Lights
DYEAR=2015
DGENRE=Jazz
TTITLE0=commons and sense
TTITLE1=Dawn
TTITLE2=Looper
TTITLE3=Nomad
TTITLE4=Stomp
TTITLE5=Underground
TTITLE6=Descarga
TTITLE7=End Of Fall
TTITLE8=Café Habana
TTITLE9=Memories
EXTD=YEAR: 2015
EXTT0=
EXTT1=
EXTT2=
EXTT3=
EXTT4=
EXTT5=
EXTT6=
EXTT7=
EXTT8=
EXTT9=
PLAYORDER=
